# xmcd
#
# Track frame offsets:
#	150
#	64232
#	115474
#	156546
#	196239
#	231331
#	307043
#
# Disc length: 4716 seconds
#
# Revision: 1
# Processed by: cddbd v1.5.2PL0 Copyright (c) Steve Scherf et al.
# Submitted via: audiograbber 1.83.01
#
DISCID=66126a07
DTITLE=Mick Taylor Band - Little Red Rooster
DYEAR=1900
DGENRE=Blues
TTITLE0=Catfish Blues
TTITLE1=Red House
TTITLE2=Little Red Rooster
TTITLE3=You Shook Me
TTITLE4=I Wonder Why
TTITLE5=Going South
TTITLE6=Blind Willie Mc Tell
EXTD=
EXTT0=
EXTT1=
EXTT2=
EXTT3=
EXTT4=
EXTT5=
EXTT6=
PLAYORDER=
